<?xml version="1.0" encoding="UTF-8" standalone="no"?>
<!DOCTYPE svg PUBLIC "-//W3C//DTD SVG 1.1//EN" "http://www.w3.org/Graphics/SVG/1.1/DTD/svg11.dtd">
<svg width="100%" height="100%" viewBox="0 0 278 60" version="1.1" xmlns="http://www.w3.org/2000/svg" xmlns:xlink="http://www.w3.org/1999/xlink" xml:space="preserve" xmlns:serif="http://www.serif.com/" style="fill-rule:evenodd;clip-rule:evenodd;stroke-linejoin:round;stroke-miterlimit:2;">
    <g transform="matrix(1,0,0,1,-196,-178)">
        <g>
            <path d="M210.465,234.725C207.537,234.725 205.149,233.981 203.301,232.493C201.453,231.005 200.121,229.133 199.305,226.877C198.489,224.621 198.189,222.185 198.405,219.569C198.621,216.953 199.353,214.517 200.601,212.261C201.849,210.005 203.601,208.133 205.857,206.645C208.113,205.157 210.849,204.413 214.065,204.413C215.217,204.413 215.793,204.845 215.793,205.709C215.793,206.141 215.709,206.513 215.541,206.825C215.373,207.137 215.181,207.437 214.965,207.725C214.749,208.013 214.545,208.337 214.353,208.697C214.161,209.057 214.065,209.525 214.065,210.101C214.065,211.061 214.389,211.961 215.037,212.801C215.685,213.641 216.585,214.061 217.737,214.061C218.889,214.061 219.969,213.617 220.977,212.729C221.985,211.841 222.945,210.701 223.857,209.309C224.769,207.917 225.621,206.393 226.413,204.737C227.205,203.081 227.937,201.485 228.609,199.949C229.281,198.413 229.881,197.045 230.409,195.845C230.937,194.645 231.417,193.829 231.849,193.397C231.465,193.013 230.793,192.677 229.833,192.389C228.873,192.101 227.961,191.957 227.097,191.957C226.329,191.957 225.693,192.077 225.189,192.317C224.685,192.557 224.433,192.989 224.433,193.613C224.433,194.093 224.589,194.465 224.901,194.729C225.213,194.993 225.573,195.233 225.981,195.449C226.389,195.665 226.749,195.917 227.061,196.205C227.373,196.493 227.529,196.901 227.529,197.429C227.529,198.053 227.253,198.701 226.701,199.373C226.149,200.045 225.405,200.633 224.469,201.137C223.533,201.641 222.489,202.061 221.337,202.397C220.185,202.733 218.985,202.901 217.737,202.901C215.529,202.901 213.765,202.373 212.445,201.317C211.125,200.261 210.225,198.953 209.745,197.393C209.265,195.833 209.169,194.141 209.457,192.317C209.745,190.493 210.405,188.801 211.437,187.241C212.469,185.681 213.837,184.385 215.541,183.353C217.245,182.321 219.249,181.805 221.553,181.805C223.233,181.805 224.589,182.057 225.621,182.561C226.653,183.065 227.673,183.605 228.681,184.181C229.689,184.757 230.841,185.297 232.137,185.801C233.433,186.305 235.161,186.557 237.321,186.557C238.425,186.557 239.181,186.785 239.589,187.241C239.997,187.697 240.201,188.357 240.201,189.221C240.201,189.941 240.117,190.781 239.949,191.741C239.781,192.701 239.625,193.805 239.481,195.053C239.337,196.301 239.253,197.741 239.229,199.373C239.205,201.005 239.361,202.853 239.697,204.917C240.273,203.477 241.161,201.653 242.361,199.445C243.561,197.237 244.929,195.077 246.465,192.965C248.001,190.853 249.657,189.041 251.433,187.529C253.209,186.017 254.937,185.261 256.617,185.261C257.577,185.261 258.261,185.501 258.669,185.981C259.077,186.461 259.281,187.085 259.281,187.853C259.281,188.141 259.017,188.981 258.489,190.373C257.961,191.765 257.337,193.433 256.617,195.377C255.897,197.321 255.165,199.373 254.421,201.533C253.677,203.693 253.101,205.697 252.693,207.545C252.285,209.393 252.117,210.917 252.189,212.117C252.261,213.317 252.753,213.917 253.665,213.917C254.049,213.917 254.385,213.821 254.673,213.629C254.961,213.437 255.213,213.209 255.429,212.945C255.645,212.681 255.861,212.453 256.077,212.261C256.293,212.069 256.545,211.973 256.833,211.973C257.409,211.973 257.781,212.369 257.949,213.161C258.117,213.953 258.117,214.949 257.949,216.149C257.781,217.349 257.457,218.645 256.977,220.037C256.497,221.429 255.861,222.725 255.069,223.925C254.277,225.125 253.377,226.121 252.369,226.913C251.361,227.705 250.233,228.101 248.985,228.101C247.161,228.101 245.805,227.573 244.917,226.517C244.029,225.461 243.477,224.081 243.261,222.377C243.045,220.673 243.081,218.765 243.369,216.653C243.657,214.541 244.089,212.405 244.665,210.245C245.241,208.085 245.889,206.033 246.609,204.089C247.329,202.145 247.977,200.501 248.553,199.157C247.881,199.637 247.161,200.573 246.393,201.965C245.625,203.357 244.845,204.941 244.053,206.717C243.261,208.493 242.457,210.341 241.641,212.261C240.825,214.181 240.045,215.945 239.301,217.553C238.557,219.161 237.837,220.481 237.141,221.513C236.445,222.545 235.809,223.061 235.233,223.061C234.705,223.061 234.333,222.581 234.117,221.621C233.901,220.661 233.769,219.425 233.721,217.913C233.673,216.401 233.697,214.733 233.793,212.909C233.889,211.085 233.985,209.297 234.081,207.545C234.177,205.793 234.249,204.185 234.297,202.721C234.345,201.257 234.273,200.165 234.081,199.445C233.553,201.605 232.989,203.969 232.389,206.537C231.789,209.105 231.081,211.697 230.265,214.313C229.449,216.929 228.489,219.461 227.385,221.909C226.281,224.357 224.949,226.529 223.389,228.425C221.829,230.321 219.993,231.845 217.881,232.997C215.769,234.149 213.297,234.725 210.465,234.725Z" style="fill:rgb(253,224,71);fill-rule:nonzero;"/>
            <path d="M269.937,228.101C266.865,228.101 264.429,227.429 262.629,226.085C260.829,224.741 259.593,223.049 258.921,221.009C258.249,218.969 258.117,216.773 258.525,214.421C258.933,212.069 259.809,209.873 261.153,207.833C262.497,205.793 264.273,204.101 266.481,202.757C268.689,201.413 271.233,200.741 274.113,200.741C277.281,200.741 279.813,201.413 281.709,202.757C283.605,204.101 284.913,205.793 285.633,207.833C286.353,209.873 286.521,212.069 286.137,214.421C285.753,216.773 284.877,218.969 283.509,221.009C282.141,223.049 280.305,224.741 278.001,226.085C275.697,227.429 273.009,228.101 269.937,228.101ZM270.153,210.389C269.721,211.349 269.649,212.309 269.937,213.269C270.225,214.229 270.777,214.901 271.593,215.285C271.977,215.477 272.385,215.573 272.817,215.573C273.489,215.573 274.137,215.357 274.761,214.925C275.385,214.493 275.865,213.917 276.201,213.197C276.633,212.237 276.717,211.265 276.453,210.281C276.189,209.297 275.649,208.613 274.833,208.229C274.497,208.037 274.089,207.941 273.609,207.941C272.937,207.941 272.277,208.157 271.629,208.589C270.981,209.021 270.489,209.621 270.153,210.389Z" style="fill:rgb(253,224,71);fill-rule:nonzero;"/>
            <path d="M287.577,207.581C287.721,206.861 287.709,206.381 287.541,206.141C287.373,205.901 287.145,205.781 286.857,205.781C286.425,205.781 285.981,205.877 285.525,206.069C285.069,206.261 284.865,206.213 284.913,205.925C284.913,205.589 285.261,205.133 285.957,204.557C286.653,203.981 287.517,203.405 288.549,202.829C289.581,202.253 290.697,201.761 291.897,201.353C293.097,200.945 294.201,200.741 295.209,200.741C295.785,200.741 296.325,200.777 296.829,200.849C297.333,200.921 297.765,201.065 298.125,201.281C298.485,201.497 298.749,201.809 298.917,202.217C299.085,202.625 299.097,203.165 298.953,203.837C298.905,204.221 298.749,204.893 298.485,205.853C298.221,206.813 297.957,207.905 297.693,209.129C297.429,210.353 297.189,211.625 296.973,212.945C296.757,214.265 296.637,215.465 296.613,216.545C296.589,217.625 296.721,218.513 297.009,219.209C297.297,219.905 297.777,220.253 298.449,220.253C299.505,220.253 300.477,219.905 301.365,219.209C302.253,218.513 303.033,217.649 303.705,216.617C304.377,215.585 304.905,214.481 305.289,213.305C305.673,212.129 305.865,211.061 305.865,210.101C305.241,210.293 304.617,210.389 303.993,210.389C302.553,210.389 301.545,209.885 300.969,208.877C300.393,207.869 300.225,206.765 300.465,205.565C300.705,204.365 301.365,203.261 302.445,202.253C303.525,201.245 305.001,200.741 306.873,200.741C308.985,200.741 310.509,201.413 311.445,202.757C312.381,204.101 312.837,205.793 312.813,207.833C312.789,209.873 312.309,212.069 311.373,214.421C310.437,216.773 309.165,218.969 307.557,221.009C305.949,223.049 304.053,224.741 301.869,226.085C299.685,227.429 297.297,228.101 294.705,228.101C293.457,228.101 292.293,227.909 291.213,227.525C290.133,227.141 289.197,226.553 288.405,225.761C287.613,224.969 286.989,223.949 286.533,222.701C286.077,221.453 285.849,219.965 285.849,218.237C285.849,216.461 286.041,214.685 286.425,212.909C286.809,211.133 287.193,209.357 287.577,207.581Z" style="fill:rgb(253,224,71);fill-rule:nonzero;"/>
            <path d="M320.553,198.005C319.161,197.621 318.117,196.829 317.421,195.629C316.725,194.429 316.569,193.133 316.953,191.741C317.337,190.349 318.129,189.305 319.329,188.609C320.529,187.913 321.825,187.757 323.217,188.141C324.609,188.525 325.653,189.317 326.349,190.517C327.045,191.717 327.201,193.013 326.817,194.405C326.433,195.797 325.641,196.841 324.441,197.537C323.241,198.233 321.945,198.389 320.553,198.005ZM317.889,228.101C316.977,228.101 316.113,227.981 315.297,227.741C314.481,227.501 313.785,227.117 313.209,226.589C312.633,226.061 312.213,225.401 311.949,224.609C311.685,223.817 311.649,222.893 311.841,221.837L314.505,207.365C314.601,206.741 314.565,206.321 314.397,206.105C314.229,205.889 314.001,205.781 313.713,205.781C313.425,205.781 313.113,205.841 312.777,205.961C312.441,206.081 312.177,206.141 311.985,206.141C311.841,206.141 311.769,206.069 311.769,205.925C311.769,205.589 312.117,205.133 312.813,204.557C313.509,203.981 314.361,203.405 315.369,202.829C316.377,202.253 317.469,201.761 318.645,201.353C319.821,200.945 320.865,200.741 321.777,200.741C323.121,200.741 324.129,201.221 324.801,202.181C325.473,203.141 325.665,204.437 325.377,206.069C325.233,206.885 325.029,207.857 324.765,208.985C324.501,210.113 324.225,211.277 323.937,212.477C323.649,213.677 323.373,214.841 323.109,215.969C322.845,217.097 322.641,218.045 322.497,218.813C322.305,219.773 322.617,220.253 323.433,220.253C324.105,220.253 324.897,220.073 325.809,219.713C326.721,219.353 327.465,219.173 328.041,219.173C328.857,219.173 329.169,219.641 328.977,220.577C328.785,221.513 328.209,222.533 327.249,223.637C326.289,224.741 324.993,225.761 323.361,226.697C321.729,227.633 319.905,228.101 317.889,228.101Z" style="fill:rgb(253,224,71);fill-rule:nonzero;"/>
            <path d="M338.625,228.101C335.361,228.101 332.733,227.429 330.741,226.085C328.749,224.741 327.333,223.049 326.493,221.009C325.653,218.969 325.401,216.773 325.737,214.421C326.073,212.069 326.925,209.873 328.293,207.833C329.661,205.793 331.557,204.101 333.981,202.757C336.405,201.413 339.297,200.741 342.657,200.741C343.665,200.741 344.709,200.885 345.789,201.173C346.869,201.461 347.853,201.917 348.741,202.541C349.629,203.165 350.361,203.933 350.937,204.845C351.513,205.757 351.801,206.837 351.801,208.085C351.801,210.581 350.601,212.597 348.201,214.133C345.801,215.669 342.489,216.437 338.265,216.437C337.929,216.437 337.629,216.545 337.365,216.761C337.101,216.977 336.969,217.349 336.969,217.877C336.969,219.749 338.625,220.685 341.937,220.685C342.897,220.685 343.821,220.457 344.709,220.001C345.597,219.545 346.449,219.041 347.265,218.489C348.081,217.937 348.861,217.433 349.605,216.977C350.349,216.521 351.057,216.293 351.729,216.293C352.497,216.293 352.917,216.581 352.989,217.157C353.061,217.733 352.869,218.465 352.413,219.353C351.957,220.241 351.273,221.189 350.361,222.197C349.449,223.205 348.381,224.153 347.157,225.041C345.933,225.929 344.589,226.661 343.125,227.237C341.661,227.813 340.161,228.101 338.625,228.101ZM337.401,211.109C337.737,211.205 338.049,211.277 338.337,211.325C338.625,211.373 338.889,211.397 339.129,211.397C340.185,211.397 341.097,211.169 341.865,210.713C342.633,210.257 343.185,209.753 343.521,209.201C343.857,208.649 343.941,208.145 343.773,207.689C343.605,207.233 343.089,207.005 342.225,207.005C341.121,207.005 340.161,207.401 339.345,208.193C338.529,208.985 337.881,209.957 337.401,211.109Z" style="fill:rgb(253,224,71);fill-rule:nonzero;"/>
            <path d="M367.137,207.797C367.089,207.797 366.957,207.641 366.741,207.329C366.525,207.017 366.369,206.645 366.273,206.213C366.177,205.781 366.177,205.313 366.273,204.809C366.369,204.305 366.657,203.837 367.137,203.405C367.857,202.829 368.889,201.977 370.233,200.849C371.577,199.721 372.957,198.593 374.373,197.465C375.789,196.337 377.121,195.365 378.369,194.549C379.617,193.733 380.553,193.325 381.177,193.325C381.897,193.325 382.185,193.781 382.041,194.693L380.817,200.741L383.193,200.741C384.153,200.741 384.981,201.089 385.677,201.785C386.373,202.481 386.721,203.309 386.721,204.269C386.721,205.229 386.373,206.057 385.677,206.753C384.981,207.449 384.153,207.797 383.193,207.797L379.377,207.797L377.217,218.381C377.073,219.149 377.085,219.653 377.253,219.893C377.421,220.133 377.697,220.253 378.081,220.253C378.753,220.253 379.557,220.073 380.493,219.713C381.429,219.353 382.185,219.173 382.761,219.173C383.577,219.173 383.889,219.641 383.697,220.577C383.505,221.513 382.917,222.533 381.933,223.637C380.949,224.741 379.641,225.761 378.009,226.697C376.377,227.633 374.553,228.101 372.537,228.101C371.625,228.101 370.761,227.981 369.945,227.741C369.129,227.501 368.433,227.117 367.857,226.589C367.281,226.061 366.861,225.401 366.597,224.609C366.333,223.817 366.297,222.893 366.489,221.837L369.081,207.797L367.137,207.797Z" style="fill:rgb(253,224,71);fill-rule:nonzero;"/>
            <path d="M393.417,198.005C392.025,197.621 390.981,196.829 390.285,195.629C389.589,194.429 389.433,193.133 389.817,191.741C390.201,190.349 390.993,189.305 392.193,188.609C393.393,187.913 394.689,187.757 396.081,188.141C397.473,188.525 398.517,189.317 399.213,190.517C399.909,191.717 400.065,193.013 399.681,194.405C399.297,195.797 398.505,196.841 397.305,197.537C396.105,198.233 394.809,198.389 393.417,198.005ZM390.753,228.101C389.841,228.101 388.977,227.981 388.161,227.741C387.345,227.501 386.649,227.117 386.073,226.589C385.497,226.061 385.077,225.401 384.813,224.609C384.549,223.817 384.513,222.893 384.705,221.837L387.369,207.365C387.465,206.741 387.429,206.321 387.261,206.105C387.093,205.889 386.865,205.781 386.577,205.781C386.289,205.781 385.977,205.841 385.641,205.961C385.305,206.081 385.041,206.141 384.849,206.141C384.705,206.141 384.633,206.069 384.633,205.925C384.633,205.589 384.981,205.133 385.677,204.557C386.373,203.981 387.225,203.405 388.233,202.829C389.241,202.253 390.333,201.761 391.509,201.353C392.685,200.945 393.729,200.741 394.641,200.741C395.985,200.741 396.993,201.221 397.665,202.181C398.337,203.141 398.529,204.437 398.241,206.069C398.097,206.885 397.893,207.857 397.629,208.985C397.365,210.113 397.089,211.277 396.801,212.477C396.513,213.677 396.237,214.841 395.973,215.969C395.709,217.097 395.505,218.045 395.361,218.813C395.169,219.773 395.481,220.253 396.297,220.253C396.969,220.253 397.761,220.073 398.673,219.713C399.585,219.353 400.329,219.173 400.905,219.173C401.721,219.173 402.033,219.641 401.841,220.577C401.649,221.513 401.073,222.533 400.113,223.637C399.153,224.741 397.857,225.761 396.225,226.697C394.593,227.633 392.769,228.101 390.753,228.101Z" style="fill:rgb(253,224,71);fill-rule:nonzero;"/>
            <path d="M399.681,228.101C399.249,228.101 399.081,227.885 399.177,227.453C399.561,225.293 399.861,223.589 400.077,222.341C400.293,221.093 400.461,220.085 400.581,219.317C400.701,218.549 400.797,217.901 400.869,217.373C400.941,216.845 401.037,216.197 401.157,215.429C401.277,214.661 401.457,213.665 401.697,212.441C401.937,211.217 402.249,209.525 402.633,207.365C402.729,206.693 402.705,206.249 402.561,206.033C402.417,205.817 402.201,205.709 401.913,205.709C401.481,205.709 401.025,205.817 400.545,206.033C400.065,206.249 399.849,206.213 399.897,205.925C399.897,205.589 400.245,205.133 400.941,204.557C401.637,203.981 402.501,203.405 403.533,202.829C404.565,202.253 405.681,201.761 406.881,201.353C408.081,200.945 409.185,200.741 410.193,200.741C410.769,200.741 411.309,200.777 411.813,200.849C412.317,200.921 412.749,201.089 413.109,201.353C413.469,201.617 413.721,202.013 413.865,202.541C414.009,203.069 413.985,203.789 413.793,204.701L413.649,205.493C414.897,204.101 416.433,202.949 418.257,202.037C420.081,201.125 421.833,200.669 423.513,200.669C424.857,200.669 425.997,201.041 426.933,201.785C427.869,202.529 428.409,203.765 428.553,205.493C429.513,204.053 430.857,202.913 432.585,202.073C434.313,201.233 436.017,200.813 437.697,200.813C438.657,200.813 439.533,200.957 440.325,201.245C441.117,201.533 441.789,201.965 442.341,202.541C442.893,203.117 443.277,203.873 443.493,204.809C443.709,205.745 443.673,206.861 443.385,208.157L441.225,218.813C441.129,219.389 441.165,219.773 441.333,219.965C441.501,220.157 441.777,220.253 442.161,220.253C442.833,220.253 443.637,220.073 444.573,219.713C445.509,219.353 446.265,219.173 446.841,219.173C447.657,219.173 447.969,219.641 447.777,220.577C447.585,221.513 447.009,222.533 446.049,223.637C445.089,224.741 443.793,225.761 442.161,226.697C440.529,227.633 438.705,228.101 436.689,228.101C435.777,228.101 434.901,227.981 434.061,227.741C433.221,227.501 432.513,227.117 431.937,226.589C431.361,226.061 430.941,225.401 430.677,224.609C430.413,223.817 430.377,222.893 430.569,221.837L432.081,213.845C432.273,212.741 432.153,211.913 431.721,211.361C431.289,210.809 430.737,210.533 430.065,210.533C429.537,210.533 428.997,210.737 428.445,211.145C427.893,211.553 427.545,212.189 427.401,213.053L425.745,222.557C425.553,223.805 425.085,224.801 424.341,225.545C423.597,226.289 422.709,226.853 421.677,227.237C420.645,227.621 419.529,227.861 418.329,227.957C417.129,228.053 415.977,228.101 414.873,228.101C414.489,228.101 414.345,227.885 414.441,227.453C414.873,224.957 415.197,223.037 415.413,221.693C415.629,220.349 415.797,219.269 415.917,218.453C416.037,217.637 416.145,216.917 416.241,216.293C416.337,215.669 416.481,214.853 416.673,213.845C416.913,212.741 416.817,211.913 416.385,211.361C415.953,210.809 415.425,210.533 414.801,210.533C414.273,210.533 413.757,210.749 413.253,211.181C412.749,211.613 412.401,212.237 412.209,213.053L410.481,222.557C410.289,223.805 409.821,224.801 409.077,225.545C408.333,226.289 407.457,226.853 406.449,227.237C405.441,227.621 404.337,227.861 403.137,227.957C401.937,228.053 400.785,228.101 399.681,228.101Z" style="fill:rgb(253,224,71);fill-rule:nonzero;"/>
            <path d="M456.273,228.101C453.009,228.101 450.381,227.429 448.389,226.085C446.397,224.741 444.981,223.049 444.141,221.009C443.301,218.969 443.049,216.773 443.385,214.421C443.721,212.069 444.573,209.873 445.941,207.833C447.309,205.793 449.205,204.101 451.629,202.757C454.053,201.413 456.945,200.741 460.305,200.741C461.313,200.741 462.357,200.885 463.437,201.173C464.517,201.461 465.501,201.917 466.389,202.541C467.277,203.165 468.009,203.933 468.585,204.845C469.161,205.757 469.449,206.837 469.449,208.085C469.449,210.581 468.249,212.597 465.849,214.133C463.449,215.669 460.137,216.437 455.913,216.437C455.577,216.437 455.277,216.545 455.013,216.761C454.749,216.977 454.617,217.349 454.617,217.877C454.617,219.749 456.273,220.685 459.585,220.685C460.545,220.685 461.469,220.457 462.357,220.001C463.245,219.545 464.097,219.041 464.913,218.489C465.729,217.937 466.509,217.433 467.253,216.977C467.997,216.521 468.705,216.293 469.377,216.293C470.145,216.293 470.565,216.581 470.637,217.157C470.709,217.733 470.517,218.465 470.061,219.353C469.605,220.241 468.921,221.189 468.009,222.197C467.097,223.205 466.029,224.153 464.805,225.041C463.581,225.929 462.237,226.661 460.773,227.237C459.309,227.813 457.809,228.101 456.273,228.101ZM455.049,211.109C455.385,211.205 455.697,211.277 455.985,211.325C456.273,211.373 456.537,211.397 456.777,211.397C457.833,211.397 458.745,211.169 459.513,210.713C460.281,210.257 460.833,209.753 461.169,209.201C461.505,208.649 461.589,208.145 461.421,207.689C461.253,207.233 460.737,207.005 459.873,207.005C458.769,207.005 457.809,207.401 456.993,208.193C456.177,208.985 455.529,209.957 455.049,211.109Z" style="fill:rgb(253,224,71);fill-rule:nonzero;"/>
        </g>
    </g>
</svg>
